<?xml version="1.0" standalone="no"?>
<!DOCTYPE svg PUBLIC "-//W3C//DTD SVG 20010904//EN"
 "http://www.w3.org/TR/2001/REC-SVG-20010904/DTD/svg10.dtd">
<svg version="1.0" xmlns="http://www.w3.org/2000/svg"
 width="6000.000000pt" height="6558.000000pt" viewBox="0 0 6000.000000 6558.000000"
 preserveAspectRatio="xMidYMid meet">

<g transform="translate(0.000000,6558.000000) scale(0.100000,-0.100000)"
fill="#000000" stroke="none">
<path d="M0 32790 l0 -32790 30000 0 30000 0 0 32790 0 32790 -30000 0 -30000
0 0 -32790z m33350 31350 c0 -12 677 -1720 1505 -3797 1122 -2814 1503 -3779
1493 -3784 -7 -4 -204 -122 -438 -262 -234 -141 -428 -252 -432 -249 -14 15
-2308 5784 -2308 5806 0 13 -6 23 -15 23 -9 0 -15 -9 -15 -21 0 -19 -915
-2332 -929 -2348 -3 -4 -87 197 -187 445 l-180 452 738 1850 c405 1018 738
1862 738 1878 0 17 5 27 15 27 8 0 15 -9 15 -20z m4510 -11335 c557 -1397
1014 -2543 1016 -2546 2 -4 -74 -61 -169 -127 -783 -547 -1404 -1049 -1861
-1505 -120 -120 -219 -217 -221 -215 -1 2 -71 176 -155 387 l-152 383 27 72
c16 39 228 572 472 1184 243 611 443 1117 443 1122 0 6 -293 745 -650 1642
-358 897 -649 1632 -648 1633 22 22 874 523 879 517 4 -4 463 -1150 1019
-2547z m1969 -4938 c253 -636 461 -1159 461 -1162 0 -9 -1397 -5 -1605 5 -666
32 -1128 112 -1393 242 -93 46 -91 38 -42 143 165 350 757 928 1595 1557 217
163 517 379 520 376 1 -2 210 -524 464 -1161z m-1849 -2386 c432 -50 531 -53
1710 -58 l1115 -5 1071 -2686 c589 -1478 1067 -2689 1062 -2690 -4 -2 -84 3
-176 12 -313 30 -497 37 -1072 43 -384 4 -743 1 -1080 -8 -278 -8 -540 -14
-583 -14 l-78 0 -1005 2520 c-552 1386 -1040 2609 -1083 2717 -43 108 -74 195
-67 193 6 -3 90 -13 186 -24z m4175 -6671 c567 -24 885 -66 1033 -135 233
-110 291 -212 248 -438 -86 -446 -546 -1141 -1284 -1937 -180 -194 -491 -514
-495 -509 -2 2 -273 682 -604 1511 l-600 1508 201 3 c518 7 1293 6 1501 -3z
m3570 -5734 c828 -2078 1510 -3789 1515 -3802 9 -23 -15 -43 -508 -412 -740
-554 -1756 -1301 -1776 -1305 -5 -1 -14 12 -19 28 -62 194 -307 811 -460 1155
-54 124 -596 1470 -1203 2992 l-1103 2768 316 312 c741 735 1272 1353 1628
1895 54 84 100 151 102 150 1 -2 680 -1703 1508 -3781z m2244 -5629 c123 -309
268 -662 322 -784 114 -257 256 -602 330 -798 l51 -136 -11 -202 c-67 -1217
-259 -2511 -546 -3682 -542 -2208 -1447 -4160 -2638 -5693 -44 -56 -82 -101
-84 -99 -2 3 14 76 36 163 269 1071 473 2366 546 3469 28 428 35 678 35 1310
0 998 -40 1704 -145 2573 -101 840 -266 1728 -460 2472 l-56 215 28 22 c16 13
262 193 548 401 600 436 1027 751 1480 1090 176 132 325 241 330 241 6 0 111
-252 234 -562z"/>
</g>
</svg>
